<?xml version="1.0" standalone="no"?>
<!DOCTYPE svg PUBLIC "-//W3C//DTD SVG 20010904//EN"
 "http://www.w3.org/TR/2001/REC-SVG-20010904/DTD/svg10.dtd">
<svg version="1.0" xmlns="http://www.w3.org/2000/svg"
 width="700.000000pt" height="700.000000pt" viewBox="0 0 700.000000 700.000000"
 preserveAspectRatio="xMidYMid meet">
<metadata>
Created by potrace 1.14, written by Peter Selinger 2001-2017
</metadata>
<g transform="translate(0.000000,700.000000) scale(0.100000,-0.100000)"
fill="#000000" stroke="none">
<path d="M3345 6793 c-83 -47 -167 -96 -187 -107 -20 -12 -98 -57 -174 -101
-143 -83 -165 -96 -276 -159 -37 -20 -71 -43 -75 -49 -4 -7 -8 -159 -8 -340 0
-269 2 -326 13 -322 8 3 62 33 120 67 59 33 127 72 152 86 24 14 84 49 133 78
49 30 92 54 94 54 2 0 43 23 91 51 48 29 107 63 131 77 25 14 67 38 93 53 l48
29 121 -70 c67 -39 122 -70 124 -70 2 0 32 -17 66 -38 35 -22 141 -83 234
-137 94 -54 184 -106 200 -115 79 -46 355 -205 390 -225 22 -12 63 -36 91 -52
27 -17 70 -41 95 -55 24 -14 100 -58 169 -98 157 -91 127 -74 507 -293 l323
-186 282 163 c155 89 284 168 286 174 2 7 -5 15 -15 19 -10 4 -63 34 -118 66
-55 33 -118 69 -140 82 -50 28 -278 159 -685 395 -173 100 -335 194 -360 208
-25 14 -101 58 -170 98 -69 39 -255 147 -415 239 -159 92 -319 184 -355 205
-168 99 -625 360 -630 360 -3 0 -73 -39 -155 -87z"/>
<path d="M2045 6052 l-290 -167 -3 -1651 -2 -1650 97 -56 c113 -63 321 -183
343 -197 8 -6 65 -38 125 -73 148 -84 138 -79 240 -138 50 -29 110 -64 134
-77 24 -14 104 -61 178 -104 75 -43 136 -79 138 -79 2 0 63 -36 138 -79 74
-43 154 -90 178 -104 24 -13 85 -48 134 -77 50 -29 110 -64 135 -78 25 -14
140 -80 255 -147 116 -67 364 -211 553 -319 l343 -197 110 63 c61 35 122 70
137 79 15 9 45 26 67 39 198 112 265 154 258 160 -4 4 -105 62 -223 130 -118
68 -240 138 -270 156 -30 18 -404 234 -830 479 -426 246 -800 461 -830 479
-30 18 -100 59 -155 90 -55 32 -107 61 -115 66 -22 14 -176 103 -235 136 -28
16 -112 64 -186 107 l-135 77 0 1650 c1 908 1 1650 1 1650 0 0 -130 -76 -290
-168z"/>
<path d="M1025 5455 c-231 -134 -424 -246 -430 -248 -7 -2 -10 -575 -11 -1688
-1 -1527 1 -1685 15 -1695 9 -7 36 -23 61 -37 25 -14 155 -89 290 -167 135
-78 263 -153 285 -165 22 -12 83 -47 135 -77 565 -327 1035 -598 1170 -676
131 -75 481 -278 840 -485 19 -11 54 -31 78 -45 l43 -24 127 72 c123 71 261
151 292 170 8 5 53 31 99 57 47 26 96 55 110 63 14 8 82 48 151 87 69 40 133
78 142 85 15 11 -17 33 -272 180 l-290 168 -137 -80 c-75 -44 -138 -80 -140
-80 -2 0 -21 -11 -42 -24 -34 -22 -40 -23 -62 -11 -13 8 -31 18 -39 22 -8 4
-121 68 -250 143 -129 75 -359 208 -510 295 -151 87 -385 222 -520 300 -135
78 -411 238 -615 355 -203 117 -372 215 -374 217 -2 1 -5 608 -5 1349 l-1
1345 75 44 c41 24 91 53 110 64 19 11 52 30 72 41 l37 20 0 335 c0 184 -3 335
-7 334 -4 0 -196 -110 -427 -244z"/>
<path d="M3320 5402 c-102 -59 -229 -132 -282 -162 -54 -30 -98 -57 -98 -60 0
-3 26 -20 58 -38 101 -57 154 -87 302 -174 80 -46 267 -154 415 -240 149 -86
353 -204 455 -263 102 -59 203 -117 225 -129 22 -13 85 -49 140 -81 247 -144
1071 -619 1113 -642 26 -14 59 -34 74 -44 14 -11 29 -19 32 -19 4 0 23 -11 44
-25 l37 -24 -2 -643 c0 -354 -2 -655 -2 -669 -1 -18 -10 -31 -28 -40 -16 -8
-59 -32 -97 -54 -37 -22 -92 -53 -121 -70 -280 -159 -553 -321 -547 -327 7 -6
283 -168 287 -168 2 0 64 -36 140 -80 76 -44 141 -80 146 -80 5 0 123 66 262
147 138 81 265 154 280 162 35 19 39 22 163 94 l100 59 0 1005 -1 1005 -80 47
c-78 46 -124 73 -223 127 -26 15 -51 30 -57 34 -5 4 -26 17 -45 27 -19 11
-384 222 -810 468 -426 246 -793 458 -815 470 -22 13 -224 129 -449 259 -225
130 -414 236 -420 236 -6 0 -94 -49 -196 -108z"/>
</g>
</svg>
